<?xml version="1.0" encoding="utf-8"?>
<!-- Svg Vector Icons : http://www.onlinewebfonts.com/icon -->
<!DOCTYPE svg PUBLIC "-//W3C//DTD SVG 1.1//EN" "http://www.w3.org/Graphics/SVG/1.1/DTD/svg11.dtd">
<svg version="1.1" xmlns="http://www.w3.org/2000/svg" xmlns:xlink="http://www.w3.org/1999/xlink" x="0px" y="0px" viewBox="0 0 256 256" enable-background="new 0 0 256 256" xml:space="preserve">
<metadata> Svg Vector Icons : http://www.onlinewebfonts.com/icon </metadata>
<g><g><g><path fill="#000000" d="M119.2,10.2c-15.1,1.3-29.1,5.1-42.2,11.4C63.9,28,55.5,34,44.8,44.7C34,55.4,28,63.8,21.7,76.9c-17.5,36.3-15.2,79.4,6.3,113.6c4.5,7.1,9.1,12.9,15.4,19.5c10.2,10.4,19.5,17.3,32.1,23.5c40.4,20.1,87.5,15.7,123.9-11.6c5.5-4.1,15.6-13.9,20.1-19.5c10.5-13,18.8-29.5,22.8-45.4c6.9-27.6,4-55.5-8.5-80.9C227.4,63,220.7,53.7,210,43.3C192,25.8,170.1,15,144.6,11C139.9,10.4,123.7,9.8,119.2,10.2z M136.3,19.8c16.8,0.8,36.4,7.5,51.4,17.6c26.8,17.9,43.8,45,48,77c0.9,6.6,0.9,20.6,0,27.3c-3.2,24.2-13.5,45.2-30.6,62.5c-17.3,17.5-38.8,28.1-63.5,31.4c-6.6,0.9-20.6,0.9-27.2,0c-48.2-6.4-85.6-42.6-93.6-90.4c-1.6-9.5-1.6-25,0-34.6c7.7-46.3,43.5-82.1,89.9-89.9c4.8-0.8,15.1-1.5,18.7-1.3C130.5,19.5,133.6,19.7,136.3,19.8z"/><path fill="#000000" d="M123.7,26.3c-0.2,0.2-0.3,6.7-0.3,14.5v14.2l-3.4,0.3c-10.3,0.9-23.1,5.5-32.1,11.5c-3.8,2.6-3.9,2.6-5.9,2.1c-4.1-1.1-8.4,0.4-11.5,3.9c-2.7,3-3.5,7-2.4,10.8c0.4,1.5,0.3,1.9-1.9,5.3c-5.9,9.1-11,24.3-11,32.6v1.8l-14.4,0.1l-14.4,0.1v4.4v4.4l14.3,0.1l14.3,0.1l0.3,3.4c0.9,11,6.1,24.6,13.1,34.4c4,5.6,11.6,13.2,17.2,17.2c9.7,6.9,23.5,12.2,34.2,13l3.6,0.3l0.1,14.3l0.1,14.3h4.4h4.4l0.1-14.3l0.1-14.3l3.6-0.3c9.5-0.8,22.5-5.3,30.9-10.9l3-1.9l2.4,1.1c1.9,0.8,3.2,1.1,6.5,1.1c3.8,0,4.5-0.1,7.2-1.5c3.5-1.8,6-4.2,7.7-7.9c1-2.2,1.2-3.2,1.2-6.7c0-3.7-0.2-4.4-1.5-7.1l-1.5-3l2-4.3c3.5-7.5,6-16.5,6.6-23.1l0.3-3.6l14.3-0.1l14.3-0.1v-4.4v-4.4l-14.3-0.1l-14.3-0.1l-0.3-3.6c-0.6-6.6-3.1-15.6-6.5-22.9l-1.9-4.2l11.7-6.4c6.4-3.5,11.7-6.6,11.7-6.9c0-1-7.2-11.5-10.7-15.7c-6.8-8-13.6-14-22.3-19.7c-4.9-3.2-15.1-8.7-16.2-8.7c-0.2,0-2.6,5.6-5.4,12.5c-2.8,6.9-5.1,12.4-5.1,12.4s-1.9-0.6-4.1-1.4c-5.2-1.8-11.2-3.1-15.7-3.5l-3.5-0.3l-0.1-14.3l-0.1-14.3l-4.1-0.1C125.9,26.1,123.9,26.1,123.7,26.3z M123.4,79.3v17.3l-1.2,0.3c-6.7,1.5-11.4,4.1-16.3,8.9c-4.9,4.8-7.5,9.6-8.9,16.2c-0.3,1.2-0.4,1.3-3.2,1.3c-2.8,0-2.9-0.1-3.9-1.6c-4.1-6.3-14-6.5-18.3-0.4l-1.4,2h-4h-4l0.2-2.2c1-9.5,5.5-22.3,10.4-29.2c0.8-1.2,0.9-1.2,2.4-0.6c3.8,1.6,9.9,0.2,12.8-2.9c2.9-3.1,3.9-8.3,2.4-12.4c-0.8-2.2-0.8-2.2,5.5-5.7c7.2-4,15.6-6.8,23.5-7.8c1.8-0.2,3.4-0.4,3.6-0.5C123.2,62,123.4,69.8,123.4,79.3z M140.4,63.2c5.9,1.1,12.6,3.4,12.3,4.3c-0.2,0.8-12.4,30.6-12.6,30.9c-0.1,0.1-1.2-0.1-2.6-0.5c-1.3-0.4-2.9-0.9-3.6-1l-1.3-0.3V79.3V62l2,0.3C135.6,62.4,138.3,62.8,140.4,63.2z M190.6,107.6c1.3,4,2.4,9.3,2.9,13.8l0.2,2h-17.2h-17.2l-0.3-1.3c-0.5-2.4-1.7-5.9-2.5-7.6l-0.9-1.7l2.9-1.6c1.6-0.9,8.3-4.6,15.1-8.3l12.2-6.7l1.7,3.5C188.5,101.7,189.9,105.2,190.6,107.6z M123.4,110.1v6.1l-2.3,1.4c-1.4,0.9-2.7,2.2-3.5,3.5l-1.2,2.1h-6.1h-6.2l0.7-2.4c2.1-7.2,8.1-13.4,15.4-15.9c1.7-0.6,3-1.1,3.1-1.1C123.3,104,123.4,106.7,123.4,110.1z M137,105.4c0.1,0.2-3.8,10.1-4.2,10.5c-0.1,0.1-0.2-2.5-0.2-5.9v-6l2.1,0.6C135.9,105,136.9,105.3,137,105.4z M150.3,118.4c0.4,1.1,1,2.7,1.2,3.5l0.4,1.5l-6.3-0.1c-8-0.2-8.1-0.6-1.5-4.1c2.7-1.5,5-2.7,5.1-2.7C149.4,116.4,149.9,117.3,150.3,118.4z M71.6,134.6c4.4,6.1,14.2,5.9,18.2-0.5c1-1.5,1.1-1.6,3.9-1.6c2.8,0,2.9,0,3.2,1.2c1.5,6.7,4.1,11.4,8.9,16.3c4.8,4.9,9.6,7.5,16.3,8.9l1.2,0.3v17.3v17.3l-1-0.2c-0.6-0.1-2.3-0.4-3.8-0.5c-1.5-0.2-4.7-0.8-7-1.4c-20.9-5.4-37.7-20.5-45.3-40.9c-1.7-4.6-3.4-11.5-3.8-16.2l-0.2-2.2h4.1h4L71.6,134.6z M117.7,134.8c0.9,1.4,2.2,2.7,3.5,3.5l2.1,1.2v6.1v6.1l-1.7-0.5c-7.7-2-14.7-8.9-16.9-16.4l-0.7-2.4h6.1h6.1L117.7,134.8z M151.4,134.3c-2.1,7.9-9.2,15-17.1,17.1l-1.8,0.5v-6.1v-6.1l2.3-1.4c1.4-0.9,2.7-2.2,3.5-3.5l1.2-2.1h6.1h6.1L151.4,134.3z M193.6,134.5c-0.8,7.4-2.9,14.9-5.9,21.3l-1.6,3.5l-1.8-0.8c-2.6-1.1-8-1-11.3,0.3c-3.6,1.4-6.9,4.5-8.8,8.2c-1.3,2.6-1.5,3.5-1.5,6.8c0,2.9,0.2,4.2,1,6c0.6,1.2,1,2.4,1,2.6c0,0.6-7.1,4.6-11.1,6.3c-6,2.5-11.4,3.9-19.4,5l-1.8,0.2v-17.2v-17.3l1.3-0.3c6.6-1.5,11.4-4.1,16.2-8.9c4.9-4.8,7.5-9.6,8.9-16.3l0.3-1.2h17.2h17.2L193.6,134.5z"/></g></g></g>
</svg>